
<svg
  version="1.0"
  xmlns="http://www.w3.org/2000/svg"
  xmlns:xlink="http://www.w3.org/1999/xlink"
  width="2400"
  height="1800"
>
  
  <rect
    x="0"
    y="0"
    width="100%"
    height="100%"
    fill="#FFFFFF"
    fill-opacity="1"
  ></rect>
  <svg
    version="1.0"
    xmlns="http://www.w3.org/2000/svg"
    xmlns:xlink="http://www.w3.org/1999/xlink"
    x="0"
    y="0"
    width="2400"
    height="1800"
    viewBox="0 0 340.000000 250.000000"
    preserveAspectRatio="xMidYMid meet"
    color-interpolation-filters="sRGB"
  >
    <defs><linearGradient id="92" x1="0%" y1="0%" x2="100%" y2="0%"><stop offset="0%" stop-color="#fa71cd"/> <stop offset="100%" stop-color="#9b59b6"/></linearGradient><linearGradient id="93" x1="0%" y1="0%" x2="100%" y2="0%"><stop offset="0%" stop-color="#f9d423"/> <stop offset="100%" stop-color="#f83600"/></linearGradient><linearGradient id="94" x1="0%" y1="0%" x2="100%" y2="0%"><stop offset="0%" stop-color="#0064d2"/> <stop offset="100%" stop-color="#1cb0f6"/></linearGradient><linearGradient id="95" x1="0%" y1="0%" x2="100%" y2="0%"><stop offset="0%" stop-color="#f00978"/> <stop offset="100%" stop-color="#3f51b1"/></linearGradient><linearGradient id="96" x1="0%" y1="0%" x2="100%" y2="0%"><stop offset="0%" stop-color="#7873f5"/> <stop offset="100%" stop-color="#ec77ab"/></linearGradient><linearGradient id="97" x1="0%" y1="0%" x2="100%" y2="0%"><stop offset="0%" stop-color="#f9d423"/> <stop offset="100%" stop-color="#e14fad"/></linearGradient><linearGradient id="98" x1="0%" y1="0%" x2="100%" y2="0%"><stop offset="0%" stop-color="#009efd"/> <stop offset="100%" stop-color="#2af598"/></linearGradient><linearGradient id="99" x1="0%" y1="0%" x2="100%" y2="0%"><stop offset="0%" stop-color="#ffcc00"/> <stop offset="100%" stop-color="#00b140"/></linearGradient><linearGradient id="100" x1="0%" y1="0%" x2="100%" y2="0%"><stop offset="0%" stop-color="#d51007"/> <stop offset="100%" stop-color="#ff8177"/></linearGradient><linearGradient id="102" x1="0%" y1="0%" x2="100%" y2="0%"><stop offset="0%" stop-color="#a2b6df"/> <stop offset="100%" stop-color="#0c3483"/></linearGradient><linearGradient id="103" x1="0%" y1="0%" x2="100%" y2="0%"><stop offset="0%" stop-color="#7ac5d8"/> <stop offset="100%" stop-color="#eea2a2"/></linearGradient><linearGradient id="104" x1="0%" y1="0%" x2="100%" y2="0%"><stop offset="0%" stop-color="#00ecbc"/> <stop offset="100%" stop-color="#007adf"/></linearGradient><linearGradient id="105" x1="0%" y1="0%" x2="100%" y2="0%"><stop offset="0%" stop-color="#b88746"/> <stop offset="100%" stop-color="#fdf5a6"/></linearGradient></defs> <g fill="#02000b" class="icon-text-wrapper icon-svg-group iconsvg" transform="translate(92.33000183105469,93.60375022888184)"><g class="iconsvg-imagesvg" transform="translate(0,1.396249771118164)"><g><rect fill="#02000b" fill-opacity="0" stroke-width="2" x="0" y="0" width="60" height="60" class="image-rect"/> <svg filter="url(#colors2816254456)" x="0" y="0" width="60" height="60" filtersec="colorsf5181253486" class="image-svg-svg primary" style="overflow: visible;"><svg xmlns="http://www.w3.org/2000/svg" xmlns:xlink="http://www.w3.org/1999/xlink" version="1.1" x="0px" y="0px" viewBox="16.399999618530273 16.399999618530273 67.19999694824219 67.19999694824219" enable-background="new 0 0 100 100" xml:space="preserve"><g><path d="M50,16.4L16.4,50L50,83.6L83.6,50L50,16.4z M31.1,56.1c1.1-0.8,3.1-0.5,5.4,0.7c0.5,0.3,1.5,1.3,2.5,2.2   c0.2,0.2,0.3,0.3,0.5,0.5l-5.4,5.4l-4.3-4.3C29.7,58.4,30.1,56.8,31.1,56.1z M40.3,60.2c2,1.9,4.2,3.6,6,3.6c0.2,0,0.4,0,0.5-0.1   c0.6-0.1,1.4-0.5,1.9-1.7c0.8-2-0.4-4.7-2.5-7.8l3.8-3.8l11.7,11.7c-1.3,1.6-2.9,3-4.6,4.3c-3.7,3.1-7.6,6.2-8.3,13.1l-14-14   L40.3,60.2z M41.7,58.8l3-3c2.2,3.2,2.4,4.8,2.1,5.5c-0.2,0.5-0.4,0.5-0.5,0.5C45.4,62,43.3,60.3,41.7,58.8z M41.1,28.1   c2-1,3.4,0.5,5.6,3.1c1.6,1.9,3.2,3.9,5.5,4.3c0.3,0,0.6,0.1,0.9,0.1c1.8,0,3.6-0.7,5.1-2c1.1-1,2-2.3,2.4-3.7l4.3,4.3L54.5,44.5   c-0.9,0-1.7,0-2.5,0c-1.2,0-1.3-0.3-1.7-1.6c-0.3-0.8-0.7-1.9-1.6-2.9c-1.1-1.1-1.9-2.7-2.7-4.4c-1.2-2.6-2.6-5.5-5.4-6.9   L41.1,28.1z M44.2,36.5c0.9,1.8,1.7,3.6,3,4.9c0.6,0.7,0.9,1.5,1.2,2.2c0.5,1.3,1.1,2.9,3.6,2.9c0.2,0,0.4,0,0.5,0L50,49L35.1,34.1   l3.9-3.9C41.6,31.2,42.9,33.8,44.2,36.5z M53.9,46.5c4.3,0.1,7.8,0.5,9.7,2.6c1.1,1.3,1.5,3.2,1.2,5.8c-0.4,2.7-1.2,4.8-2.5,6.5   L50.7,49.8L53.9,46.5z M49.3,49.8l-3.7,3.7c-1.4-1.9-3-3.8-4.7-5.7c-0.2-0.3-0.4-0.5-0.6-0.6c-1.7-2.2-3.5-2-4.9-1.8   c-1,0.1-1.6,0.1-2.2-0.4c-0.2-1.6-1.2-5.4-1.8-7.1l3-3L49.3,49.8z M58.4,68c1.7-1.4,3.3-2.7,4.8-4.4l2,2L50.8,80   C51.4,73.7,54.8,70.9,58.4,68z M63.7,62.8c1.5-2,2.6-4.4,3-7.7c0.4-3.2-0.1-5.6-1.6-7.4c-2.1-2.4-5.7-3-9.2-3.2l9.7-9.7L80.8,50   L65.9,64.9L63.7,62.8z M58.9,28.1c-0.1,1.4-0.8,2.8-2,3.9c-1.2,1.1-2.8,1.6-4.3,1.4c-1.5-0.3-2.9-1.9-4.3-3.6   c-1.4-1.6-2.9-3.5-4.9-4l6.7-6.7L58.9,28.1z M29.8,39.4c0.6,1.9,1.4,5.2,1.4,5.9v0.4l0.2,0.3c1.3,1.5,2.9,1.4,4.1,1.3   c1.2-0.1,2.1-0.2,3.2,1.1c0.2,0.2,0.4,0.4,0.6,0.7c2.1,2.3,3.6,4.2,4.8,5.8L41,58.1c-0.2-0.2-0.4-0.4-0.5-0.5   c-1.2-1.2-2.2-2.1-3-2.5c-3.1-1.6-5.8-1.8-7.5-0.6c-0.9,0.6-1.9,1.8-2.1,4.2L19.2,50L29.8,39.4z"/></g></svg></svg> <defs><filter id="colors2816254456"><feColorMatrix type="matrix" values="0 0 0 0 0.0078125  0 0 0 0 0  0 0 0 0 0.04296875  0 0 0 1 0" class="icon-feColorMatrix "/></filter> <filter id="colorsf5181253486"><feColorMatrix type="matrix" values="0 0 0 0 0.99609375  0 0 0 0 0.99609375  0 0 0 0 0.99609375  0 0 0 1 0" class="icon-fecolormatrix"/></filter> <filter id="colorsb5118468178"><feColorMatrix type="matrix" values="0 0 0 0 0  0 0 0 0 0  0 0 0 0 0  0 0 0 1 0" class="icon-fecolormatrix"/></filter></defs></g></g> <g transform="translate(67,0)"><g fill-rule="" class="tp-name iconsvg-namesvg" transform="translate(0,0)"><g transform="scale(1)"><g><path d="M26.32-46.93L26.32-46.93Q30.75-46.93 33.54-45.7 36.34-44.46 38.55-42.7L38.55-42.7Q39.33-42.12 39.84-42.12L39.84-42.12Q41.08-42.12 41.47-46.02L41.47-46.02 42.97-46.02Q42.84-43.48 42.77-39.88 42.7-36.27 42.7-30.29L42.7-30.29 41.21-30.29Q40.76-34.19 39.81-37.08 38.87-39.98 36.34-42.05L36.34-42.05Q34.77-43.55 32.47-44.4 30.16-45.24 27.82-45.24L27.82-45.24Q24.25-45.24 21.71-43.39 19.18-41.54 17.55-38.35 15.93-35.16 15.15-31.17 14.37-27.17 14.37-22.88L14.37-22.88Q14.37-11.18 17.58-5.79 20.8-0.39 26.85-0.39L26.85-0.39Q28.41-0.39 29.57-0.78 30.75-1.17 31.46-1.69L31.46-1.69Q32.37-2.34 32.7-3.09 33.02-3.83 33.02-5.07L33.02-5.07 33.02-11.44Q33.02-14.43 32.53-15.89 32.05-17.36 30.62-17.88 29.19-18.39 26.46-18.46L26.46-18.46 26.46-19.76Q27.82-19.7 29.74-19.66 31.66-19.63 33.73-19.6 35.81-19.57 37.57-19.57L37.57-19.57Q40.3-19.57 42.58-19.63 44.85-19.7 46.28-19.76L46.28-19.76 46.28-18.46Q44.46-18.33 43.91-17.42 43.36-16.51 43.36-12.87L43.36-12.87 43.36 0 42.05 0Q41.99-1.1 41.57-2.41 41.15-3.71 40.17-3.71L40.17-3.71Q39.72-3.71 38.97-3.48 38.22-3.25 36.66-2.34L36.66-2.34Q34.26-0.98 31.59-0.03 28.93 0.91 26 0.91L26 0.91Q14.63 0.91 8.71-5.27 2.79-11.44 2.79-22.49L2.79-22.49Q2.79-29.9 5.82-35.36 8.84-40.82 14.14-43.88 19.44-46.93 26.32-46.93ZM71.24-46.15L71.24-46.15 87.03-5.46Q87.94-3.12 89.08-2.24 90.22-1.36 91.13-1.3L91.13-1.3 91.13 0Q89.18-0.13 86.55-0.16 83.91-0.2 81.25-0.2L81.25-0.2Q78.26-0.2 75.59-0.16 72.93-0.13 71.37 0L71.37 0 71.37-1.3Q74.69-1.43 75.56-2.44 76.44-3.45 75.14-6.76L75.14-6.76 64.09-36.98 65.26-38.68 55.38-12.94Q53.56-8.13 53.59-5.66 53.63-3.19 55.19-2.31 56.75-1.43 59.34-1.3L59.34-1.3 59.34 0Q57.2-0.13 55.25-0.16 53.3-0.2 51.29-0.2L51.29-0.2Q49.86-0.2 48.59-0.16 47.32-0.13 46.34 0L46.34 0 46.34-1.3Q47.71-1.56 49.14-3.06 50.57-4.55 51.94-8.13L51.94-8.13 66.75-46.15Q67.8-46.09 69-46.09 70.2-46.09 71.24-46.15ZM57.07-18.72L75.79-18.72 75.79-17.42 56.42-17.42 57.07-18.72Z" transform="translate(-2.7899999618530273, 46.93000030517578)"/></g> </g></g> <g fill-rule="" class="tp-slogan iconsvg-slogansvg" fill="#02000b" transform="translate(10.83944320678711,53.84000015258789)"> <g transform="scale(1, 1)"><g transform="scale(1)"><path d="M7.31-3.61L4.69-3.61L4.69-4.59L8.44-4.59L8.44 0L7.69 0L7.41-1.08Q6.42 0.09 4.59 0.14L4.59 0.14Q2.86 0.14 1.92-0.75L1.92-0.75Q0.52-2.06 0.56-4.36L0.56-4.36Q0.89-8.63 4.64-8.81L4.64-8.81Q7.83-8.63 8.30-6L8.30-6L7.17-6Q6.70-7.78 4.59-7.83L4.59-7.83Q1.92-7.64 1.78-4.31L1.78-4.31Q1.78-0.75 4.64-0.75L4.64-0.75Q5.67-0.75 6.42-1.31L6.42-1.31Q7.36-2.06 7.31-3.61L7.31-3.61ZM11.53-1.03L16.69-1.03L16.69 0L10.36 0L10.36-8.58L16.59-8.58L16.59-7.59L11.53-7.59L11.53-4.92L16.22-4.92L16.22-3.89L11.53-3.89L11.53-1.03ZM24.98-4.27L24.98-4.27Q24.80-7.64 21.98-7.83L21.98-7.83Q19.13-7.69 18.98-4.27L18.98-4.27Q19.13-0.94 21.98-0.80L21.98-0.80Q24.80-0.98 24.98-4.27ZM26.16-4.27L26.16-4.27Q25.88 0 21.98 0.14L21.98 0.14Q18.05 0 17.77-4.27L17.77-4.27Q18-8.72 21.98-8.81L21.98-8.81Q25.88-8.67 26.16-4.27ZM36.52 0L35.67-2.48L32.20-2.48L31.31 0L30.14 0L33.38-8.58L34.69-8.58L37.78 0L36.52 0ZM33.94-7.31L32.58-3.52L35.25-3.52L33.98-7.31L33.94-7.31ZM41.02-7.59L38.11-7.59L38.11-8.58L45.05-8.58L45.05-7.59L42.14-7.59L42.14 0L41.02 0L41.02-7.59ZM46.08-8.58L47.25-8.58L47.25-1.03L51.61-1.03L51.61 0L46.08 0L46.08-8.58ZM58.41 0L57.56-2.48L54.09-2.48L53.20 0L52.03 0L55.27-8.58L56.58-8.58L59.67 0L58.41 0ZM55.83-7.31L54.47-3.52L57.14-3.52L55.88-7.31L55.83-7.31ZM66.98-6.09L66.98-6.09L65.91-6.09Q65.81-7.73 63.75-7.83L63.75-7.83Q61.83-7.78 61.83-6.33L61.83-6.33Q61.83-5.39 62.86-5.25L62.86-5.25L65.30-4.69Q67.22-4.22 67.22-2.34L67.22-2.34Q67.17 0.05 63.84 0.14L63.84 0.14Q62.02 0.14 61.27-0.61L61.27-0.61Q60.33-1.31 60.38-2.77L60.38-2.77L61.50-2.77Q61.55-0.80 63.84-0.75L63.84-0.75Q66.09-0.80 66.14-2.20L66.14-2.20Q66.33-3.38 64.27-3.75L64.27-3.75L62.48-4.13Q60.66-4.64 60.66-6.19L60.66-6.19Q60.80-8.72 63.66-8.81L63.66-8.81Q66.89-8.81 66.98-6.09Z" transform="translate(-0.5609879032258065, 8.8125)"/></g></g></g></g></g><defs v-gra="od"/>
  </svg>
</svg>


